<?xml version="1.0" standalone="no"?>
<!DOCTYPE svg PUBLIC "-//W3C//DTD SVG 20010904//EN"
 "http://www.w3.org/TR/2001/REC-SVG-20010904/DTD/svg10.dtd">
<svg version="1.0" xmlns="http://www.w3.org/2000/svg"
 width="1024.000000pt" height="1024.000000pt" viewBox="0 0 1024.000000 1024.000000"
 preserveAspectRatio="xMidYMid meet">

<g transform="translate(0.000000,1024.000000) scale(0.100000,-0.100000)"
fill="#000000" stroke="none">
<path d="M4800 8569 c-36 -4 -81 -10 -100 -12 -19 -3 -54 -7 -78 -10 -24 -2
-48 -9 -55 -16 -6 -6 -16 -11 -21 -11 -6 0 -4 5 4 10 11 7 5 8 -20 4 -65 -12
-59 -19 22 -22 56 -2 92 -9 119 -22 21 -11 39 -19 39 -17 0 8 -39 48 -45 47
-4 -1 -9 1 -12 3 -7 8 20 3 33 -6 7 -4 58 0 115 8 70 9 140 12 211 8 104 -6
108 -5 108 14 0 22 -46 39 -53 20 -2 -7 -29 -6 -80 1 -84 13 -89 13 -187 1z
m-165 -39 c-3 -5 -18 -10 -33 -9 l-27 1 25 8 c35 11 42 11 35 0z"/>
<path d="M5315 8570 c-27 -5 -65 -6 -82 -3 -29 5 -33 2 -33 -16 0 -18 6 -21
40 -21 29 0 40 4 40 15 0 11 12 15 44 15 25 0 48 5 51 10 3 6 3 9 -2 9 -4 -1
-30 -5 -58 -9z"/>
<path d="M5438 8559 c-2 -7 -31 -14 -63 -16 -33 -2 -71 -8 -85 -13 -27 -11
-330 -21 -330 -11 0 3 -13 6 -30 6 -16 1 -30 -2 -30 -5 0 -3 -18 -4 -41 -2
-22 3 -46 -1 -52 -7 -6 -6 -28 -11 -49 -11 -31 0 -38 -4 -38 -20 0 -17 -7 -20
-40 -20 -29 0 -40 -4 -40 -15 0 -11 -11 -15 -40 -15 -28 0 -40 -4 -40 -14 0
-8 6 -16 13 -19 6 -2 -12 -3 -40 -1 -30 2 -53 -1 -53 -6 0 -6 -18 -10 -40 -10
-22 0 -40 5 -40 10 0 18 -29 11 -40 -10 -11 -20 -40 -28 -40 -10 0 5 -30 9
-68 9 -37 0 -84 2 -105 6 -30 6 -37 4 -37 -9 0 -10 -9 -16 -23 -16 -13 0 -27
-4 -33 -10 -5 -5 -23 -10 -39 -11 -31 -2 -80 9 -72 17 2 3 17 0 33 -6 l29 -11
-21 20 c-20 18 -24 19 -65 5 -105 -36 -374 -162 -389 -182 -3 -4 -10 -8 -15
-9 -34 -6 -271 -150 -268 -162 1 -5 -4 -8 -11 -7 -20 2 -238 -153 -231 -164 8
-13 26 -13 23 -1 -2 5 0 8 4 7 4 0 15 9 23 22 9 12 24 22 33 22 15 -1 14 -3
-3 -16 -20 -16 -20 -16 1 -10 14 4 24 2 27 -8 4 -10 0 -12 -14 -9 -11 3 -19 2
-17 -3 3 -11 -33 -54 -45 -54 -11 0 -33 -22 -35 -35 -1 -5 -10 -11 -21 -13
-29 -5 -25 61 4 66 l20 4 -20 -17 c-11 -9 -14 -15 -6 -13 24 7 37 36 23 50 -8
8 -15 9 -20 3 -4 -6 -23 -22 -42 -37 -59 -44 -105 -89 -102 -100 1 -5 -3 -6
-9 -3 -14 9 -120 -95 -112 -109 3 -6 2 -8 -2 -3 -11 10 -66 -43 -58 -56 3 -6
2 -7 -4 -4 -12 7 -106 -86 -97 -96 4 -4 2 -7 -5 -7 -7 0 -9 -5 -5 -12 4 -6 3
-8 -3 -5 -6 4 -24 -9 -40 -28 -15 -20 -44 -55 -64 -78 -82 -97 -180 -238 -173
-248 4 -7 3 -9 -3 -6 -6 4 -18 -4 -27 -18 -13 -20 -14 -30 -6 -48 10 -20 10
-20 -3 -5 -13 16 -19 10 -64 -65 -47 -76 -59 -113 -28 -87 9 8 14 7 18 -4 4
-9 1 -18 -5 -22 -7 -4 -8 -3 -4 4 5 8 0 11 -16 9 -25 -4 -71 -73 -61 -92 4 -5
2 -6 -3 -2 -10 9 -75 -120 -140 -278 -217 -525 -294 -1091 -228 -1660 2 -22 5
-47 5 -55 4 -73 73 -411 104 -505 7 -22 25 -79 40 -127 15 -49 30 -88 33 -88
4 0 8 -10 8 -23 2 -28 113 -279 128 -289 6 -4 7 -8 3 -8 -7 0 29 -71 81 -162
12 -21 30 -53 40 -70 34 -60 86 -143 92 -148 4 -3 10 -13 13 -23 4 -11 16 -21
27 -24 11 -3 21 -10 22 -17 0 -6 2 -15 2 -21 3 -24 18 -36 31 -25 10 8 15 8
21 -1 4 -7 3 -9 -4 -5 -26 16 -21 -19 9 -57 88 -112 153 -186 161 -181 4 3 5
-1 3 -8 -3 -8 14 -31 37 -53 23 -22 37 -33 30 -24 -9 12 -9 16 3 16 8 0 13 -2
10 -5 -2 -3 1 -14 7 -26 7 -11 11 -25 10 -30 -2 -5 4 -3 13 4 13 11 15 10 9
-4 -7 -19 53 -89 68 -80 5 3 7 2 6 -3 -2 -5 9 -22 25 -38 15 -16 27 -27 27
-23 0 4 19 -13 42 -38 24 -26 47 -43 55 -40 8 3 12 2 9 -3 -11 -17 217 -196
236 -185 6 4 8 3 5 -3 -4 -6 0 -16 8 -23 8 -7 15 -10 15 -7 0 3 14 -8 31 -24
17 -16 37 -29 45 -29 8 0 14 -5 14 -11 0 -6 7 -8 16 -5 10 4 13 2 8 -6 -5 -7
-2 -9 8 -6 8 4 21 2 29 -4 11 -8 10 -9 -3 -4 -28 8 -21 0 15 -22 26 -15 38
-17 53 -9 16 9 17 8 7 -4 -10 -13 -7 -18 20 -33 23 -13 27 -13 13 -2 -11 9
-15 16 -9 16 5 0 21 -11 35 -24 41 -37 97 -68 109 -60 7 4 9 3 6 -3 -8 -12
101 -66 115 -57 7 4 8 2 4 -4 -10 -16 7 -15 23 1 10 10 11 9 6 -5 -5 -13 0
-20 20 -28 15 -6 31 -7 37 -4 7 5 8 2 3 -6 -6 -10 -4 -12 11 -6 10 4 15 4 11
0 -16 -17 266 -119 534 -193 100 -28 330 -68 494 -86 237 -27 727 -14 798 20
15 8 25 9 21 4 -3 -6 4 -8 18 -5 12 3 84 17 158 31 207 40 334 77 542 157 63
24 105 45 101 51 -4 6 -1 7 6 2 15 -9 113 34 105 46 -3 5 1 6 9 3 16 -6 129
47 160 74 9 8 17 12 17 8 0 -3 22 6 50 20 28 15 47 31 43 37 -3 6 -1 7 5 3 14
-8 74 28 64 39 -4 5 -2 5 5 2 13 -8 175 92 168 103 -3 4 3 7 13 6 9 0 16 5 14
12 -1 8 2 11 8 7 13 -8 42 14 35 25 -3 5 0 12 6 16 8 4 9 3 5 -4 -14 -23 4
-12 89 54 48 37 82 70 79 76 -4 7 -2 8 4 4 12 -7 44 19 134 106 27 26 52 49
56 50 4 2 6 6 5 10 -2 5 3 7 10 5 6 -1 11 4 9 11 -1 8 2 11 7 8 9 -6 29 12 30
29 1 6 7 10 14 10 6 1 11 6 10 13 -2 7 3 11 10 9 6 -1 11 4 10 10 -2 7 2 12 9
10 6 -1 17 9 24 22 7 13 29 38 50 56 22 19 34 37 30 44 -4 6 -3 10 2 9 10 -3
92 81 92 95 0 4 -5 5 -12 1 -7 -4 -8 -3 -4 5 4 6 11 9 15 6 15 -9 52 41 45 61
-4 14 -3 15 4 5 11 -16 27 3 17 20 -8 12 24 51 35 44 4 -3 13 2 20 10 7 8 10
15 6 15 -3 0 3 9 14 20 12 12 18 25 15 31 -4 5 -1 8 5 7 12 -3 108 137 109
157 0 6 -4 3 -10 -5 -9 -13 -10 -13 -6 0 2 8 9 15 15 15 7 0 21 18 33 40 12
22 39 71 60 108 22 38 36 74 32 80 -3 7 -2 9 2 4 5 -4 15 7 22 25 11 25 11 33
1 41 -10 6 -9 7 2 4 17 -4 35 28 81 140 16 40 26 80 23 90 -4 13 -3 14 3 5 12
-16 38 62 27 80 -4 6 -3 8 3 5 23 -15 142 451 159 620 3 32 11 114 19 183 17
150 19 419 5 596 -12 154 -48 376 -63 385 -5 4 -7 11 -3 17 8 13 -53 249 -99
382 -57 165 -145 364 -224 508 -37 68 -41 71 -32 30 5 -21 4 -37 -3 -44 -8 -8
-11 4 -10 44 1 47 -3 59 -30 90 -17 20 -25 32 -18 28 12 -7 12 -4 2 15 -23 43
-73 114 -87 122 -7 5 -11 13 -7 18 3 5 0 8 -8 7 -7 -2 -12 3 -10 10 2 11 -63
112 -73 112 -1 0 -9 -8 -16 -17 -13 -17 -13 -17 5 -3 18 14 19 13 13 -2 -4
-11 -2 -17 5 -15 6 1 12 -4 13 -11 2 -7 1 -8 -2 -2 -2 5 -10 7 -16 3 -25 -16
-32 -9 -33 36 -1 28 1 38 5 27 4 -11 10 -15 13 -10 8 13 -35 61 -50 56 -17 -5
-15 -23 2 -20 8 2 14 -1 13 -7 -1 -5 -6 -8 -12 -6 -5 2 -18 4 -27 5 -15 0 -15
3 4 23 l21 22 -57 70 c-54 66 -99 112 -82 84 4 -8 2 -13 -4 -13 -7 0 -9 7 -6
16 8 21 -73 109 -100 109 -23 0 -56 24 -48 36 3 5 10 7 15 3 5 -3 6 -10 3 -16
-4 -7 -2 -8 5 -4 8 5 6 15 -9 35 -15 22 -25 27 -45 23 -15 -2 -25 0 -25 7 0 7
-5 9 -12 5 -7 -4 -8 -3 -4 4 5 9 13 9 29 1 18 -9 16 -5 -8 21 -38 40 -67 58
-58 34 5 -14 3 -14 -15 -3 -14 9 -18 17 -12 23 12 12 -17 46 -39 45 -11 0 -9
-4 7 -11 25 -13 30 -27 6 -24 -19 3 -34 25 -27 42 7 19 -7 40 -17 24 -4 -7
-15 -10 -24 -7 -18 7 -22 27 -5 27 5 0 7 -5 3 -12 -4 -7 -3 -8 4 -4 7 4 12 9
12 11 0 14 -259 199 -267 191 -3 -3 6 -11 21 -17 24 -11 24 -13 8 -25 -22 -17
-38 -18 -23 -1 12 16 5 27 -17 27 -19 0 -64 48 -57 61 6 9 -8 13 -32 10 -7 -1
-10 5 -7 12 3 8 -2 17 -12 21 -14 5 -15 4 -5 -8 9 -11 8 -15 -7 -18 -14 -4
-18 1 -17 21 0 23 -3 26 -35 24 -31 -1 -33 0 -17 12 16 11 16 13 2 19 -10 4
-14 2 -9 -5 4 -7 1 -10 -7 -7 -8 3 -13 10 -12 14 2 11 -67 12 -84 1 -8 -5 -13
-4 -13 2 0 6 4 11 9 11 16 0 20 38 4 44 -9 4 -11 2 -7 -6 4 -6 -3 -4 -16 5
-16 11 -29 13 -46 7 -13 -5 -25 -7 -25 -5 -5 19 -7 27 -8 38 -1 15 -48 40 -60
33 -4 -3 -13 0 -21 6 -12 8 -12 9 3 4 10 -3 16 -2 13 3 -3 5 -15 11 -26 14
-11 3 -18 1 -15 -3 3 -4 -4 -6 -16 -3 -16 5 -18 8 -7 15 13 9 -44 3 -87 -9
-18 -5 -18 -5 -2 12 10 9 24 14 32 11 8 -3 15 -2 15 3 0 9 -42 24 -75 27 -11
1 -28 2 -37 3 -10 0 -18 5 -18 10 0 5 10 7 23 5 12 -3 7 2 -12 11 -19 8 -36
13 -39 10 -3 -3 1 -5 8 -5 7 0 11 -2 8 -5 -9 -9 -38 7 -32 17 4 6 -1 6 -13 -1
-11 -5 -28 -10 -39 -10 -24 1 -46 -5 -61 -14 -8 -5 -13 -3 -13 7 0 9 8 16 19
16 10 0 21 9 24 20 3 14 0 19 -12 18 -35 -3 -62 2 -57 11 12 19 -84 37 -114
21 -12 -6 -20 -7 -20 -1 0 5 6 11 13 14 6 2 1 4 -13 4 -14 0 -41 3 -60 7 l-35
7 23 -20 23 -20 -20 -13 c-34 -21 -24 -31 24 -25 27 4 45 3 45 -3 0 -6 -48
-10 -120 -10 -73 0 -120 4 -120 10 0 6 -28 10 -65 10 -37 0 -65 4 -65 10 0 6
-9 19 -20 30 -22 22 -86 28 -92 8 -5 -14 -38 -4 -38 12 0 5 14 10 30 10 20 0
30 5 30 15 0 9 9 15 25 15 14 0 25 -4 25 -10 0 -5 3 -9 8 -9 26 4 52 -3 52
-15 0 -8 7 -16 15 -20 10 -3 15 1 15 13 0 11 -6 21 -12 24 -7 2 5 3 27 2 76
-4 75 -3 71 -32 -2 -16 -1 -23 1 -16 6 16 53 46 53 33 0 -5 -5 -10 -11 -10 -6
0 -9 -8 -7 -17 5 -25 20 -18 34 16 12 29 12 31 -9 31 -17 0 -19 2 -8 9 10 7 0
11 -35 16 -68 8 -123 13 -101 8 9 -2 17 -9 17 -14 0 -12 3 -12 -55 11 -31 13
-39 19 -22 17 15 -2 27 0 27 4 0 17 -41 9 -82 -17 -32 -20 -42 -23 -49 -13 -4
8 -3 16 3 20 6 4 -3 10 -21 14 -17 4 -29 11 -25 16 3 5 -4 9 -15 9 -10 0 -21
-5 -23 -11z m-125 -46 c-7 -2 -19 -2 -25 0 -7 3 -2 5 12 5 14 0 19 -2 13 -5z
m197 -3 c0 -5 -14 -10 -31 -10 -22 0 -32 -5 -36 -20 -4 -16 -14 -20 -44 -20
-22 0 -39 4 -39 10 0 5 -12 13 -27 17 -24 6 -17 9 42 19 92 15 135 16 135 4z
m233 -7 c-7 -2 -19 -2 -25 0 -7 3 -2 5 12 5 14 0 19 -2 13 -5z m-459 -20 c3
-7 12 -13 21 -13 21 0 19 -17 -5 -30 -16 -9 -20 -8 -20 5 0 12 -15 15 -79 15
-52 0 -81 4 -83 12 -3 8 -12 8 -38 -1 -23 -8 -36 -8 -38 -1 -2 5 -21 10 -43
10 -21 0 -39 4 -39 10 0 16 318 10 324 -7z m-544 -43 c0 -5 -4 -10 -10 -10 -5
0 -10 5 -10 10 0 6 5 10 10 10 6 0 10 -4 10 -10z m60 0 c0 -5 -4 -10 -10 -10
-5 0 -10 5 -10 10 0 6 5 10 10 10 6 0 10 -4 10 -10z m1271 -15 c0 -5 -5 -11
-13 -13 -9 -2 -8 0 2 8 12 9 9 10 -15 6 -22 -5 -26 -4 -15 4 18 12 41 9 41 -5z
m46 -1 c-3 -3 -12 -4 -19 -1 -8 3 -5 6 6 6 11 1 17 -2 13 -5z m-1344 -21 c-7
-2 -19 -2 -25 0 -7 3 -2 5 12 5 14 0 19 -2 13 -5z m1327 -8 c10 -12 10 -15 -4
-15 -9 0 -16 7 -16 15 0 8 2 15 4 15 2 0 9 -7 16 -15z m-153 -31 c-3 -3 -12
-4 -19 -1 -8 3 -5 6 6 6 11 1 17 -2 13 -5z m193 -4 c0 -5 -8 -10 -17 -10 -15
0 -16 2 -3 10 19 12 20 12 20 0z m-1900 -27 c0 -13 -88 -21 -140 -12 -34 5
-34 6 -11 15 33 14 151 12 151 -3z m-268 -13 l33 -20 -42 0 c-41 0 -43 -1 -43
-30 0 -31 0 -31 -51 -29 -46 2 -83 19 -42 19 15 0 16 2 3 10 -12 8 -13 12 -2
19 8 4 14 12 14 17 -1 5 6 8 14 6 8 -2 14 4 14 13 0 22 62 19 102 -5z m88 0
c0 -5 -10 -10 -22 -9 -22 0 -22 1 -3 9 11 5 21 9 23 9 1 1 2 -3 2 -9z m-250
-30 c0 -5 -7 -10 -15 -10 -8 0 -15 5 -15 10 0 6 7 10 15 10 8 0 15 -4 15 -10z
m210 -10 c0 -5 -4 -10 -10 -10 -5 0 -10 5 -10 10 0 6 5 10 10 10 6 0 10 -4 10
-10z m60 0 c0 -5 -4 -10 -10 -10 -5 0 -10 5 -10 10 0 6 5 10 10 10 6 0 10 -4
10 -10z m-281 -16 c2 -2 -5 -4 -17 -4 -12 0 -22 -6 -23 -12 0 -10 -2 -10 -6 0
-2 6 -11 12 -19 12 -9 0 -13 -4 -10 -9 3 -5 -6 -8 -20 -8 -29 0 -28 1 11 21
25 13 69 13 84 0z m254 -21 c-7 -2 -19 -2 -25 0 -7 3 -2 5 12 5 14 0 19 -2 13
-5z m47 -7 c0 -3 -4 -8 -10 -11 -5 -3 -10 -1 -10 4 0 6 5 11 10 11 6 0 10 -2
10 -4z m-450 -21 c0 -8 -7 -15 -16 -15 -14 0 -14 3 -4 15 7 8 14 15 16 15 2 0
4 -7 4 -15z m2960 5 c0 -13 -11 -13 -30 0 -12 8 -11 10 8 10 12 0 22 -4 22
-10z m-2912 -33 c9 -3 3 -5 -15 -6 -18 0 -38 -7 -45 -15 -11 -12 -15 -12 -30
1 -15 14 -16 13 -11 -9 4 -12 11 -27 17 -31 8 -6 7 -10 -1 -14 -7 -2 -13 -11
-13 -19 0 -17 -65 -20 -75 -4 -4 6 -16 8 -27 4 -20 -6 -20 -6 -2 20 11 14 22
26 27 26 4 0 7 7 7 15 0 12 7 14 28 9 21 -4 24 -3 12 5 -17 12 -20 11 49 14
20 1 38 9 45 20 9 14 12 15 14 3 2 -8 11 -17 20 -19z m82 13 c0 -12 -28 -20
-45 -14 -14 6 -13 8 2 19 17 13 43 10 43 -5z m2795 -30 c-27 -12 -35 -12 -35
0 0 6 12 10 28 9 24 0 25 -1 7 -9z m110 0 c-3 -5 -12 -10 -18 -10 -7 0 -6 4 3
10 19 12 23 12 15 0z m-3190 -40 c-3 -5 -13 -10 -21 -10 -8 0 -12 5 -9 10 3 6
13 10 21 10 8 0 12 -4 9 -10z m185 -10 c0 -5 -4 -10 -10 -10 -5 0 -10 5 -10
10 0 6 5 10 10 10 6 0 10 -4 10 -10z m-245 -20 c3 -6 -1 -7 -9 -4 -18 7 -21
14 -7 14 6 0 13 -4 16 -10z m3316 -4 c-9 -11 -9 -15 0 -18 10 -3 9 -10 -3 -27
l-17 -24 -9 34 c-9 34 -7 36 37 48 2 1 -2 -5 -8 -13z m-3303 -14 c17 -2 32 -8
32 -12 0 -10 -26 -31 -31 -25 -3 2 -26 -2 -52 -10 -31 -9 -47 -10 -47 -3 0 6
-9 8 -21 5 -16 -4 -18 -3 -9 9 7 7 22 12 34 10 11 -2 30 1 40 7 19 10 19 10 0
25 -19 14 -19 15 1 7 11 -5 35 -10 53 -13z m205 1 c-7 -2 -19 -2 -25 0 -7 3
-2 5 12 5 14 0 19 -2 13 -5z m-136 -49 c-3 -3 -12 -4 -19 -1 -8 3 -5 6 6 6 11
1 17 -2 13 -5z m-196 -14 c10 0 19 -5 19 -11 0 -5 -4 -7 -10 -4 -5 3 -10 4
-10 0 0 -3 10 -10 23 -15 18 -7 15 -9 -21 -9 -40 -1 -43 1 -37 21 6 17 4 20
-9 15 -11 -4 -15 -3 -11 4 4 6 14 8 22 5 8 -3 23 -6 34 -6z m1669 1 c-19 -4
71 -10 200 -13 138 -4 276 -13 335 -23 55 -9 127 -14 160 -11 40 3 48 2 25 -3
l-35 -7 32 -8 c18 -4 38 -4 44 0 8 4 9 3 5 -4 -5 -8 0 -12 13 -12 11 0 23 5
26 10 3 6 11 10 17 10 6 0 5 -7 -3 -17 -13 -15 -12 -16 9 -11 12 4 20 3 17 -2
-7 -11 52 -20 99 -16 28 3 35 1 25 -5 -11 -8 -8 -9 11 -8 14 1 43 -6 65 -15
22 -9 50 -21 63 -26 12 -5 22 -15 22 -21 0 -6 7 -9 15 -6 8 4 27 0 42 -8 15
-8 34 -15 41 -15 8 0 10 -5 6 -12 -4 -7 -4 -10 1 -6 4 4 17 1 28 -7 16 -11 24
-12 36 -2 12 10 14 9 9 -5 -4 -10 -1 -19 8 -22 10 -4 13 -2 8 7 -6 9 -4 9 7 2
25 -19 86 -36 105 -29 18 5 18 5 0 -6 -14 -9 -24 -9 -43 -1 -14 7 -27 10 -30
8 -2 -2 10 -10 27 -17 23 -10 37 -10 55 -2 16 7 25 8 25 2 0 -6 -7 -10 -15
-10 -28 0 -15 -15 40 -45 38 -20 66 -29 90 -26 21 1 35 -2 35 -9 0 -7 -8 -9
-21 -5 -15 5 -19 4 -15 -4 4 -6 14 -11 22 -11 8 0 14 -4 14 -10 0 -5 10 -15
23 -21 21 -12 21 -11 7 6 -14 18 -14 18 12 1 21 -13 31 -15 47 -7 20 11 22 3
9 -34 -1 -5 0 -11 5 -12 18 -6 67 -34 67 -39 0 -3 -4 -2 -10 1 -5 3 -10 4 -10
1 0 -3 17 -17 38 -30 20 -14 50 -35 67 -48 16 -12 26 -18 23 -12 -4 5 2 10 12
10 14 0 16 -3 8 -13 -6 -8 -8 -16 -4 -20 3 -3 6 -1 6 5 0 6 9 14 20 17 11 4
17 11 14 17 -5 7 -2 8 5 3 9 -5 7 -12 -9 -27 l-21 -20 23 -22 c13 -12 25 -21
27 -19 2 1 12 -2 22 -7 12 -7 20 -7 24 0 3 5 0 10 -7 11 -10 0 -10 2 -1 6 18
7 27 1 31 -21 1 -11 10 -28 19 -38 9 -10 13 -18 9 -18 -4 0 -4 -5 0 -11 4 -8
9 -7 15 2 7 12 9 12 9 0 0 -11 3 -11 18 0 14 11 13 10 -2 -9 l-19 -22 74 -74
c40 -41 76 -73 80 -70 4 2 18 -14 33 -36 29 -44 31 -46 42 -28 4 6 3 8 -4 4
-6 -3 -13 -2 -16 2 -7 11 40 9 51 -2 4 -4 1 -6 -7 -4 -9 2 -14 -4 -14 -14 1
-10 -3 -15 -9 -11 -6 4 -7 1 -3 -6 5 -7 14 -10 22 -7 8 3 11 0 8 -8 -3 -7 3
-19 13 -27 17 -13 17 -13 3 6 -14 18 -14 19 2 7 9 -8 15 -19 12 -26 -7 -18 22
-41 32 -25 4 7 3 9 -4 5 -6 -4 -10 1 -9 12 0 10 6 19 13 19 7 0 10 -7 6 -15
-3 -10 -1 -13 6 -8 9 6 9 1 0 -19 -10 -23 -9 -29 12 -48 19 -18 22 -19 17 -4
-4 11 -3 16 4 12 6 -4 8 -14 5 -22 -7 -17 72 -135 85 -128 4 3 11 0 15 -6 5
-8 3 -9 -6 -4 -8 5 -11 3 -8 -6 3 -8 11 -13 18 -11 8 2 10 -3 7 -13 -4 -8 -2
-15 3 -15 6 0 10 -4 10 -9 0 -21 73 -130 82 -125 6 4 8 1 6 -7 -7 -18 10 -51
22 -44 6 4 7 -1 3 -11 -5 -13 -3 -15 7 -9 8 5 11 4 6 -3 -9 -14 68 -165 79
-155 4 5 5 3 2 -3 -4 -7 18 -73 48 -149 30 -75 55 -143 55 -151 0 -8 5 -14 11
-14 5 0 8 -4 5 -8 -3 -5 2 -31 10 -58 43 -135 77 -301 100 -494 11 -85 7 -495
-5 -580 -36 -256 -91 -470 -175 -695 -43 -111 -134 -300 -186 -382 -29 -46
-31 -55 -19 -70 13 -16 12 -17 -2 -5 -14 11 -20 8 -38 -24 -16 -27 -19 -40
-11 -49 8 -10 8 -15 -1 -21 -7 -4 -9 -3 -5 4 3 6 2 13 -3 16 -4 3 -25 -20 -46
-52 -21 -31 -46 -67 -57 -79 -11 -12 -17 -26 -13 -33 3 -6 2 -9 -4 -8 -14 4
-122 -124 -116 -139 2 -7 -2 -10 -12 -6 -12 5 -14 1 -8 -18 4 -17 3 -20 -3
-10 -8 11 -17 6 -44 -24 -18 -21 -32 -43 -30 -49 2 -6 0 -7 -4 -3 -4 4 -49
-32 -98 -81 -50 -49 -129 -120 -176 -158 -47 -37 -84 -72 -82 -77 1 -5 -1 -6
-6 -3 -4 3 -53 -27 -108 -66 -54 -39 -91 -68 -81 -64 11 3 16 2 12 -5 -4 -5
-15 -7 -25 -4 -12 4 -22 -1 -29 -12 -6 -10 -11 -15 -11 -11 0 4 -28 -8 -62
-27 -35 -19 -96 -51 -136 -71 -41 -20 -71 -38 -69 -41 3 -2 14 0 25 6 21 11
62 4 62 -11 0 -5 -8 -4 -19 2 -24 12 -34 13 -27 1 3 -4 -11 -7 -31 -5 -21 1
-56 -7 -87 -21 -28 -12 -62 -26 -75 -30 -19 -6 -21 -9 -10 -17 11 -8 9 -8 -5
-4 -24 8 -127 -24 -119 -37 3 -6 1 -7 -5 -3 -6 3 -36 -2 -67 -11 -43 -13 -52
-19 -38 -25 12 -5 8 -6 -12 -3 -36 5 -129 -18 -118 -30 4 -4 2 -5 -4 -1 -18
10 -84 -4 -76 -17 3 -6 1 -7 -5 -3 -6 4 -35 4 -64 0 -41 -6 -48 -9 -33 -16 13
-5 4 -6 -25 -3 -31 3 -39 2 -25 -4 16 -7 11 -9 -20 -8 -22 0 -105 -5 -185 -12
-100 -9 -231 -11 -420 -7 -151 3 -276 6 -278 6 -2 0 0 5 3 10 6 10 -21 13 -95
11 -29 0 -32 1 -15 9 18 9 18 10 -5 8 -14 0 -32 2 -40 5 -36 13 -71 17 -65 7
4 -6 -5 -10 -22 -10 -19 0 -24 3 -15 9 10 6 6 11 -17 19 -21 8 -30 8 -25 1 3
-6 -8 -3 -25 6 -17 9 -36 13 -41 10 -5 -3 -17 -1 -27 4 -54 28 -96 41 -116 36
-15 -4 -18 -3 -9 3 11 7 9 10 -7 15 -14 3 -19 1 -14 -6 4 -7 -5 -4 -20 6 -15
10 -33 15 -39 11 -7 -5 -8 -3 -3 6 6 10 4 12 -7 7 -9 -3 -26 2 -39 11 -34 24
-130 64 -157 66 -12 0 -26 6 -30 12 -4 7 -26 17 -50 23 -23 7 -40 16 -37 20 6
11 -19 21 -51 21 -15 0 -24 6 -24 16 0 11 -6 15 -20 11 -10 -3 -18 -1 -17 3 3
13 -183 131 -195 124 -7 -5 -8 -2 -3 6 6 10 4 12 -8 7 -9 -3 -19 -1 -23 5 -5
7 -2 8 7 4 8 -4 3 1 -11 12 -26 22 -60 25 -73 7 -5 -6 -7 -4 -4 5 2 8 12 14
22 13 16 -1 16 0 1 15 -9 9 -28 16 -43 17 -21 0 -28 5 -28 20 0 11 -6 19 -13
17 -8 -1 -11 2 -8 7 8 12 -32 41 -48 35 -7 -3 -21 6 -32 18 l-19 23 21 -17
c11 -10 24 -18 29 -18 5 0 -11 17 -36 37 -88 74 -302 289 -347 351 -25 34 -49
62 -54 62 -4 0 -8 7 -8 16 0 8 -4 12 -10 9 -5 -3 -10 -1 -10 6 0 7 -17 35 -38
63 -39 51 -87 123 -108 161 -6 11 -16 19 -23 17 -7 -1 -9 2 -6 8 4 6 -4 28
-17 48 -13 20 -39 67 -58 104 -19 37 -37 65 -40 63 -3 -2 -6 9 -7 23 0 15 -6
28 -12 30 -6 2 -11 11 -11 20 0 15 -2 15 -11 2 -9 -12 -10 -11 -5 4 7 20 -40
145 -59 158 -5 4 -7 8 -3 8 5 0 -46 163 -69 220 -3 8 -5 21 -4 29 1 7 -1 11
-6 8 -4 -3 -8 7 -9 21 -1 26 -31 171 -41 202 -3 8 -7 25 -9 38 -1 12 -7 55
-13 95 -43 293 -37 556 18 886 11 62 17 121 14 130 -4 13 -3 13 5 2 8 -10 12
-6 18 20 4 19 8 39 9 44 0 6 11 44 24 85 13 41 24 83 23 94 0 10 2 15 5 12 10
-9 32 62 26 83 -3 10 0 22 6 25 7 5 9 0 6 -11 -3 -10 2 -3 10 15 9 18 12 38 9
44 -4 6 -3 8 3 5 6 -4 14 0 17 9 4 10 2 13 -6 8 -7 -4 -3 6 9 22 11 16 26 40
32 54 l12 25 -20 -25 c-11 -14 -21 -20 -21 -14 0 6 12 21 26 35 36 34 77 116
62 125 -7 5 -8 3 -3 -6 6 -9 4 -11 -5 -5 -9 6 -12 4 -8 -7 4 -9 0 -15 -8 -15
-12 0 -12 4 1 23 18 28 19 38 3 28 -7 -5 -8 -3 -4 5 6 9 13 8 27 -5 19 -17 19
-17 13 -1 -4 12 -2 17 7 15 8 -2 13 3 11 10 -1 6 3 12 9 12 6 0 8 7 5 17 -4
10 -4 14 0 10 7 -7 13 0 49 56 26 40 10 33 -18 -8 -19 -28 -26 -32 -31 -20 -3
9 -2 13 4 10 5 -3 14 3 19 14 14 26 14 34 -1 25 -7 -4 -8 -3 -4 5 4 6 11 9 16
6 5 -3 11 -1 15 5 4 6 10 8 15 5 5 -3 12 0 16 6 4 8 3 9 -4 5 -7 -4 -12 -2
-12 3 0 6 5 11 11 11 6 0 8 7 5 16 -6 15 -4 15 11 3 11 -9 14 -10 9 -2 -12 21
-16 54 -5 48 5 -4 13 5 18 18 11 28 29 43 39 32 4 -4 1 -10 -6 -12 -14 -5 -36
-43 -25 -43 4 0 24 24 43 53 19 28 39 55 44 58 5 4 6 11 3 16 -3 5 -1 15 5 23
8 12 9 11 4 -4 -7 -20 -7 -20 14 -1 14 13 19 27 16 40 -4 16 3 28 27 45 26 19
29 20 17 4 -8 -10 2 -4 22 15 20 18 35 38 33 45 -3 6 14 23 36 39 22 15 37 32
34 37 -4 6 -1 9 7 8 7 -2 12 3 10 10 -1 8 1 11 6 8 5 -3 55 41 110 97 56 56
113 110 127 120 14 10 22 23 19 29 -4 6 -2 8 4 4 6 -3 26 6 44 21 57 48 112
89 136 102 21 11 22 14 7 25 -15 11 -14 12 4 12 11 0 17 -4 15 -8 -3 -4 -2 -8
1 -8 7 0 96 59 105 69 3 3 16 12 30 20 14 8 66 38 116 67 50 29 117 63 148 76
31 14 53 28 49 33 -5 4 -2 5 5 1 7 -4 18 -3 25 2 7 5 29 15 51 22 24 8 34 15
26 20 -8 5 -5 9 9 13 12 3 19 1 15 -4 -5 -9 13 -3 74 23 33 14 37 15 60 17 15
1 15 3 -2 13 -14 8 -24 8 -37 -1 -11 -6 -24 -11 -31 -11 -7 0 -4 6 7 12 11 7
49 13 84 13 36 1 66 6 68 12 2 6 14 9 26 6 18 -4 19 -3 7 7 -12 9 -11 10 7 5
22 -6 138 20 159 36 5 5 21 6 35 3 20 -5 21 -4 9 6 -12 9 -7 11 24 6 21 -3 36
-2 32 1 -9 9 37 30 53 25 11 -4 10 -7 -5 -14 -15 -7 -14 -7 6 -3 14 2 41 5 60
5 21 0 30 3 22 8 -7 5 25 9 72 11 46 1 105 8 132 15 27 8 63 13 79 13 28 0 28
0 -5 -6z m198 2 c-10 -2 -28 -2 -40 0 -13 2 -5 4 17 4 22 1 32 -1 23 -4z
m1747 -11 c-3 -3 -11 0 -18 7 -9 10 -8 11 6 5 10 -3 15 -9 12 -12z m-2450 -32
c6 -10 -44 -35 -53 -26 -2 3 8 8 23 12 20 5 23 9 13 15 -9 6 -9 9 -1 9 6 0 15
-5 18 -10z m58 3 c-7 -2 -21 -2 -30 0 -10 3 -4 5 12 5 17 0 24 -2 18 -5z
m1234 1 c-3 -3 -12 -4 -19 -1 -8 3 -5 6 6 6 11 1 17 -2 13 -5z m40 -10 c-3 -3
-12 -4 -19 -1 -8 3 -5 6 6 6 11 1 17 -2 13 -5z m-2636 -17 c-6 -8 -8 -17 -4
-21 4 -4 -1 -4 -11 0 -18 7 -18 8 0 21 23 17 30 17 15 0z m3924 -27 c3 -5 1
-10 -4 -10 -6 0 -11 5 -11 10 0 6 2 10 4 10 3 0 8 -4 11 -10z m-3972 -17 c-7
-2 -13 -9 -13 -14 0 -6 9 -5 21 2 29 15 50 -4 29 -26 -13 -12 -18 -12 -39 4
-23 18 -22 42 2 40 9 0 9 -2 0 -6z m1137 3 c0 -2 -7 -7 -16 -10 -8 -3 -12 -2
-9 4 6 10 25 14 25 6z m2865 -6 c3 -5 1 -10 -4 -10 -6 0 -11 5 -11 10 0 6 2
10 4 10 3 0 8 -4 11 -10z m10 -36 c-9 -9 -19 -13 -23 -10 -3 4 0 11 8 16 24
15 33 11 15 -6z m61 -19 c10 -8 15 -14 9 -14 -5 0 -19 6 -29 14 -11 8 -15 15
-10 15 6 0 19 -7 30 -15z m-3249 -21 c-3 -3 -12 -4 -19 -1 -8 3 -5 6 6 6 11 1
17 -2 13 -5z m48 -4 c-3 -5 -14 -10 -23 -9 -14 0 -13 2 3 9 27 11 27 11 20 0z
m2296 -20 c-13 -11 -31 -20 -39 -20 -9 0 -1 9 18 19 45 25 51 25 21 1z m969
-17 c0 -7 -39 17 -46 28 -3 6 5 3 20 -6 14 -10 26 -19 26 -22z m-4160 -18 c-7
-8 -19 -15 -27 -15 -11 0 -9 7 8 25 25 25 41 16 19 -10z m862 17 c-27 -13 -34
-14 -45 -2 -10 10 -9 12 3 8 8 -3 24 -2 35 3 36 14 41 8 7 -9z m3258 -7 c11
-13 10 -14 -4 -9 -9 3 -16 10 -16 15 0 13 6 11 20 -6z m-4276 -87 c6 -4 7 -10
4 -14 -4 -3 -14 1 -22 9 -9 8 -21 17 -28 19 -10 4 -10 9 2 22 13 17 15 17 24
-5 6 -13 15 -27 20 -31z m901 42 c3 -5 -2 -10 -12 -10 -11 0 -24 -5 -30 -11
-6 -6 -17 -9 -25 -7 -8 3 -1 11 17 20 37 20 42 20 50 8z m-815 -15 c0 -8 -4
-15 -10 -15 -5 0 -10 7 -10 15 0 8 5 15 10 15 6 0 10 -7 10 -15z m-170 -37 c0
-19 -16 -5 -17 14 -2 18 0 20 7 8 5 -8 10 -18 10 -22z m3605 2 c3 -6 -1 -7 -9
-4 -18 7 -21 14 -7 14 6 0 13 -4 16 -10z m56 -31 c19 -16 20 -18 4 -10 -34 17
-51 31 -39 31 7 0 22 -9 35 -21z m-2821 4 c-8 -3 -28 -15 -43 -26 -16 -10 -30
-17 -33 -14 -7 7 58 45 76 45 13 0 13 0 0 -5z m-931 -29 l-24 -26 25 7 c14 4
22 4 18 0 -4 -4 -21 -9 -38 -11 l-30 -4 33 30 c40 37 48 39 16 4z m774 -70
c-10 -7 -25 -13 -33 -13 -8 0 -5 4 8 10 13 5 21 13 17 19 -3 6 1 7 10 4 14 -6
14 -8 -2 -20z m-845 -26 c15 -15 15 -28 1 -28 -5 0 -7 5 -3 12 5 7 2 9 -8 6
-9 -4 -15 0 -15 8 0 17 9 18 25 2z m4832 -22 c0 -3 -4 -8 -10 -11 -5 -3 -10
-1 -10 4 0 6 5 11 10 11 6 0 10 -2 10 -4z m-4905 -27 c-3 -8 -15 -20 -27 -28
-20 -12 -20 -11 3 17 25 31 33 34 24 11z m4995 -21 c17 -17 28 -34 25 -37 -3
-3 -17 8 -30 24 -18 22 -23 24 -19 10 6 -19 6 -19 -11 -3 -9 9 -14 21 -11 27
10 16 12 15 46 -21z m-4228 14 c14 -6 7 -15 -38 -50 -31 -24 -59 -41 -62 -38
-3 3 0 6 7 6 8 0 11 6 7 16 -3 8 -2 13 2 10 11 -6 72 31 72 43 0 5 -6 12 -12
14 -7 3 -8 5 -3 6 6 0 18 -3 27 -7z m3468 4 c0 -3 -4 -8 -10 -11 -5 -3 -10 -1
-10 4 0 6 5 11 10 11 6 0 10 -2 10 -4z m710 -36 c0 -5 -4 -10 -10 -10 -5 0
-10 5 -10 10 0 6 5 10 10 10 6 0 10 -4 10 -10z m-715 -10 c3 -6 -1 -7 -9 -4
-18 7 -21 14 -7 14 6 0 13 -4 16 -10z m-4321 -58 c3 -5 -1 -9 -9 -9 -8 0 -12
4 -9 9 3 4 7 8 9 8 2 0 6 -4 9 -8z m4441 -30 c-3 -3 -16 1 -30 8 -18 10 -22
16 -13 21 13 8 53 -20 43 -29z m741 10 c-2 -1 16 -24 41 -49 38 -41 42 -48 29
-61 -20 -20 -37 -6 -30 25 5 20 4 24 -6 18 -8 -5 -11 -4 -6 3 3 6 -4 19 -17
29 -13 10 -29 29 -36 41 -11 21 -11 22 8 10 11 -7 19 -14 17 -16z m-4486 -31
c0 -5 -7 -12 -16 -15 -14 -5 -15 -4 -4 9 14 17 20 19 20 6z m4475 -19 c-3 -3
-11 0 -18 7 -9 10 -8 11 6 5 10 -3 15 -9 12 -12z m-10 -30 c-3 -3 -11 0 -18 7
-9 10 -8 11 6 5 10 -3 15 -9 12 -12z m-5225 -41 c0 -12 -2 -13 -8 -3 -5 7 -16
10 -25 6 -13 -4 -17 -1 -17 15 0 15 4 19 17 14 12 -5 14 -3 9 8 -4 8 0 5 8 -5
9 -11 16 -27 16 -35z m-20 -11 c0 -5 -5 -10 -11 -10 -5 0 -7 5 -4 10 3 6 8 10
11 10 2 0 4 -4 4 -10z m4656 1 c-3 -5 1 -11 9 -15 8 -3 15 -11 15 -17 0 -7 -8
-5 -20 6 -17 15 -19 35 -4 35 3 0 3 -4 0 -9z m-4716 -36 c-7 -8 -9 -19 -5 -24
3 -6 1 -20 -6 -32 -9 -19 -13 -19 -25 -7 -16 16 -8 52 9 41 6 -4 8 0 4 9 -6
18 11 40 25 32 5 -3 4 -12 -2 -19z m690 2 c0 -2 -12 -14 -27 -28 l-28 -24 24
28 c23 25 31 32 31 24z m4128 -65 c34 -32 62 -62 62 -67 0 -5 -7 1 -16 13 -8
12 -19 20 -24 17 -4 -3 -27 17 -50 45 -23 27 -40 50 -38 50 2 0 31 -26 66 -58z
m-4922 -57 c-3 -9 0 -15 9 -15 8 0 15 -5 15 -11 0 -5 -4 -7 -10 -4 -5 3 -10 0
-11 -7 0 -7 -4 -2 -10 10 -5 13 -7 28 -3 33 9 15 17 10 10 -6z m5647 -26 c4
-16 3 -18 -9 -8 -7 6 -11 15 -8 20 8 13 11 11 17 -12z m91 -99 c15 -22 21 -40
15 -40 -6 0 -8 -7 -5 -16 3 -9 2 -12 -5 -9 -5 4 -7 16 -3 27 4 14 2 18 -5 14
-6 -4 -9 -1 -5 7 3 8 -10 27 -30 45 -41 36 -47 50 -12 27 13 -9 36 -34 50 -55z
m-5798 -43 c-2 -7 -5 -4 -5 6 -1 9 -6 17 -12 17 -5 0 -7 5 -3 11 9 15 28 -16
20 -34z m-16 1 c0 -13 -23 -5 -28 10 -2 7 2 10 12 6 9 -3 16 -11 16 -16z
m5794 -14 c3 -8 2 -12 -4 -9 -6 3 -10 10 -10 16 0 14 7 11 14 -7z m-5814 -10
c0 -2 -7 -4 -15 -4 -8 0 -15 4 -15 10 0 5 7 7 15 4 8 -4 15 -8 15 -10z m560
-57 c0 -5 -5 -5 -12 -1 -7 5 -9 2 -6 -7 3 -8 0 -23 -7 -32 -11 -15 -13 -15
-18 -3 -4 9 -2 18 4 22 6 3 8 13 5 21 -3 8 -1 11 4 8 13 -8 13 1 -1 28 -9 19
-7 18 10 -3 11 -14 21 -29 21 -33z m4760 13 c0 -5 -2 -10 -4 -10 -3 0 -8 5
-11 10 -3 6 -1 10 4 10 6 0 11 -4 11 -10z m580 -25 c0 -5 -5 -3 -10 5 -5 8
-10 20 -10 25 0 6 5 3 10 -5 5 -8 10 -19 10 -25z m-606 1 c-3 -8 2 -27 11 -43
l17 -28 -20 25 c-27 32 -34 60 -16 60 7 0 11 -6 8 -14z m-4806 -40 c-7 -8 -15
-12 -17 -11 -5 6 10 25 20 25 5 0 4 -6 -3 -14z m-565 -41 c-3 -9 -8 -14 -10
-11 -3 3 -2 9 2 15 9 16 15 13 8 -4z m-62 -72 c-12 -20 -14 -14 -5 12 4 9 9
14 11 11 3 -2 0 -13 -6 -23z m11 -40 c-3 -16 -7 -22 -10 -15 -4 13 4 42 11 42
2 0 2 -12 -1 -27z m6113 17 c3 -5 1 -10 -4 -10 -6 0 -11 5 -11 10 0 6 2 10 4
10 3 0 8 -4 11 -10z m-6154 -33 c-10 -9 -11 -8 -5 6 3 10 9 15 12 12 3 -3 0
-11 -7 -18z m5597 -12 c-3 -3 -9 2 -12 12 -6 14 -5 15 5 6 7 -7 10 -15 7 -18z
m-5568 -9 c0 -3 -4 -8 -10 -11 -5 -3 -10 -1 -10 4 0 6 5 11 10 11 6 0 10 -2
10 -4z m5595 -20 c0 -15 -4 -21 -9 -16 -5 5 -6 16 -3 24 9 22 12 20 12 -8z
m572 -8 c-3 -7 -5 -2 -5 12 0 14 2 19 5 13 2 -7 2 -19 0 -25z m-6242 -47 c-3
-11 -1 -22 5 -26 5 -3 10 -14 9 -23 0 -14 -2 -13 -9 3 l-9 20 -1 -20 -1 -20
-8 20 c-5 11 -4 30 2 43 12 27 21 29 12 3z m6275 -66 c0 -5 -5 -3 -10 5 -5 8
-10 20 -10 25 0 6 5 3 10 -5 5 -8 10 -19 10 -25z m50 -40 c0 -5 -5 -3 -10 5
-5 8 -10 20 -10 25 0 6 5 3 10 -5 5 -8 10 -19 10 -25z m-566 -10 c5 -22 4 -26
-4 -15 -5 8 -10 24 -10 34 0 26 6 18 14 -19z m514 10 c-3 -3 -9 2 -12 12 -6
14 -5 15 5 6 7 -7 10 -15 7 -18z m-5764 -20 c-4 -8 -11 -15 -16 -15 -6 0 -5 6
2 15 7 8 14 15 16 15 2 0 1 -7 -2 -15z m-77 -117 c-3 -8 -6 -5 -6 6 -1 11 2
17 5 13 3 -3 4 -12 1 -19z m5933 -48 c0 -5 -7 -10 -16 -10 -8 0 -12 5 -9 10 3
6 10 10 16 10 5 0 9 -4 9 -10z m-6460 -10 c0 -5 -4 -10 -10 -10 -5 0 -10 5
-10 10 0 6 5 10 10 10 6 0 10 -4 10 -10z m6467 -32 c-3 -8 -6 -5 -6 6 -1 11 2
17 5 13 3 -3 4 -12 1 -19z m-6030 -60 c-3 -8 -6 -5 -6 6 -1 11 2 17 5 13 3 -3
4 -12 1 -19z m43 -13 c0 -5 -5 -3 -10 5 -5 8 -10 20 -10 25 0 6 5 3 10 -5 5
-8 10 -19 10 -25z m5522 -27 c-6 -6 -7 0 -4 19 5 21 7 23 10 9 2 -10 0 -22 -6
-28z m-5555 3 c0 -11 -5 -18 -9 -15 -4 3 -5 11 -1 19 7 21 12 19 10 -4z m-17
-89 c0 -15 -5 -22 -12 -19 -7 2 -13 9 -12 15 1 7 2 22 3 35 1 18 3 19 11 7 5
-8 10 -25 10 -38z m6097 6 c-3 -8 -6 -5 -6 6 -1 11 2 17 5 13 3 -3 4 -12 1
-19z m-6130 -70 c-3 -8 -6 -5 -6 6 -1 11 2 17 5 13 3 -3 4 -12 1 -19z m6170 0
c-3 -8 -6 -5 -6 6 -1 11 2 17 5 13 3 -3 4 -12 1 -19z m-6174 -39 c-7 -25 -10
-24 -15 5 -3 16 -1 23 7 19 7 -2 11 -13 8 -24z m-20 -39 c3 -11 1 -18 -4 -14
-5 3 -9 12 -9 20 0 20 7 17 13 -6z m5721 -6 c3 -8 2 -12 -4 -9 -6 3 -10 10
-10 16 0 14 7 11 14 -7z m-5729 -24 c3 -5 1 -10 -4 -10 -6 0 -11 5 -11 10 0 6
2 10 4 10 3 0 8 -4 11 -10z m-498 -32 c-3 -8 -6 -5 -6 6 -1 11 2 17 5 13 3 -3
4 -12 1 -19z m6231 -32 c-7 -8 -15 -12 -17 -11 -5 6 10 25 20 25 5 0 4 -6 -3
-14z m-6241 -28 c-3 -7 -5 -2 -5 12 0 14 2 19 5 13 2 -7 2 -19 0 -25z m-20
-150 c-2 -13 -4 -5 -4 17 -1 22 1 32 4 23 2 -10 2 -28 0 -40z m460 0 c-3 -8
-6 -5 -6 6 -1 11 2 17 5 13 3 -3 4 -12 1 -19z m20 -10 c-3 -7 -5 -2 -5 12 0
14 2 19 5 13 2 -7 2 -19 0 -25z m5820 -70 c-3 -8 -6 -5 -6 6 -1 11 2 17 5 13
3 -3 4 -12 1 -19z m-6310 -20 c-3 -8 -6 -5 -6 6 -1 11 2 17 5 13 3 -3 4 -12 1
-19z m463 -8 c0 -5 -4 -10 -10 -10 -5 0 -10 5 -10 10 0 6 5 10 10 10 6 0 10
-4 10 -10z m3 -120 c-3 -12 -8 -19 -11 -16 -5 6 5 36 12 36 2 0 2 -9 -1 -20z
m5864 -452 c-2 -13 -4 -5 -4 17 -1 22 1 32 4 23 2 -10 2 -28 0 -40z m-5790
-450 c-3 -7 -5 -2 -5 12 0 14 2 19 5 13 2 -7 2 -19 0 -25z m6160 -90 c-3 -8
-6 -5 -6 6 -1 11 2 17 5 13 3 -3 4 -12 1 -19z m-473 -23 c-4 -8 -10 -12 -15
-9 -11 6 -2 24 11 24 5 0 7 -7 4 -15z m-37 -167 c-3 -7 -5 -2 -5 12 0 14 2 19
5 13 2 -7 2 -19 0 -25z m-5563 -4 c3 -8 2 -12 -4 -9 -6 3 -10 10 -10 16 0 14
7 11 14 -7z m36 -28 c0 -3 -4 -8 -10 -11 -5 -3 -10 -1 -10 4 0 6 5 11 10 11 6
0 10 -2 10 -4z m5461 -49 c-10 -9 -11 -8 -5 6 3 10 9 15 12 12 3 -3 0 -11 -7
-18z m-5424 -99 c-3 -8 -6 -5 -6 6 -1 11 2 17 5 13 3 -3 4 -12 1 -19z m5373
-34 c-18 -21 -24 -10 -8 15 7 12 14 17 16 11 2 -6 -2 -17 -8 -26z m23 -19 c-3
-9 -8 -14 -10 -11 -3 3 -2 9 2 15 9 16 15 13 8 -4z m-72 -72 c-12 -20 -14 -14
-5 12 4 9 9 14 11 11 3 -2 0 -13 -6 -23z m550 4 c-10 -9 -11 -8 -5 6 3 10 9
15 12 12 3 -3 0 -11 -7 -18z m-5789 -9 c-7 -7 -12 -8 -12 -2 0 14 12 26 19 19
2 -3 -1 -11 -7 -17z m5228 -32 c0 -8 -7 -16 -15 -20 -12 -4 -13 -2 -2 14 14
24 17 25 17 6z m27 -8 c-3 -8 -6 -5 -6 6 -1 11 2 17 5 13 3 -3 4 -12 1 -19z
m-5230 -10 c-3 -8 -6 -5 -6 6 -1 11 2 17 5 13 3 -3 4 -12 1 -19z m5744 -1
c-10 -9 -11 -8 -5 6 3 10 9 15 12 12 3 -3 0 -11 -7 -18z m-526 -17 c3 -5 1
-10 -4 -10 -6 0 -11 5 -11 10 0 6 2 10 4 10 3 0 8 -4 11 -10z m438 -165 c-3
-9 -8 -14 -10 -11 -3 3 -2 9 2 15 9 16 15 13 8 -4z m-5491 -69 c10 -19 10 -20
-6 -7 -9 8 -22 24 -28 35 -10 19 -10 20 6 7 9 -8 22 -24 28 -35z m4862 2 c-6
-20 -5 -21 10 -9 20 17 21 5 2 -15 -17 -16 -30 -19 -21 -4 3 6 1 10 -4 10 -7
0 -7 7 1 20 17 26 21 25 12 -2z m-39 -74 c1 -29 -1 -30 -16 -3 -9 17 -8 20 2
14 9 -6 10 -3 5 11 -4 10 -3 15 1 10 4 -4 8 -19 8 -32z m-4772 -19 c-3 -9 -8
-14 -10 -11 -3 3 -2 9 2 15 9 16 15 13 8 -4z m4740 0 c-3 -9 -8 -14 -10 -11
-3 3 -2 9 2 15 9 16 15 13 8 -4z m-57 -83 c0 -10 -8 -18 -18 -18 -16 0 -16 2
-1 18 9 10 17 18 17 18 1 0 2 -8 2 -18z m-4592 -65 c7 -6 6 -7 -4 -4 -8 2 -16
14 -17 28 -1 19 -1 20 4 4 3 -11 10 -24 17 -28z m41 5 c-7 -8 -35 7 -35 18 0
6 7 6 20 -2 10 -7 17 -14 15 -16z m20 -34 c19 -8 25 -17 21 -31 -3 -14 -1 -17
12 -12 13 5 14 3 5 -6 -14 -14 -34 -3 -27 16 3 8 -6 20 -23 29 -33 18 -25 21
12 4z m4452 -30 c-3 -8 -6 -5 -6 6 -1 11 2 17 5 13 3 -3 4 -12 1 -19z m-37
-12 c0 -3 -4 -8 -10 -11 -5 -3 -10 -1 -10 4 0 6 5 11 10 11 6 0 10 -2 10 -4z
m-4290 -77 c10 0 11 -2 2 -6 -15 -6 -63 38 -55 51 3 4 13 -3 22 -18 8 -14 22
-26 31 -27z m4268 40 c-10 -6 -18 -18 -19 -27 0 -14 -2 -13 -8 3 -11 26 -8 30
21 32 20 2 21 1 6 -8z m-42 -66 c-3 -4 -6 -1 -6 5 0 7 -8 12 -17 12 -15 0 -16
2 -3 10 10 6 17 4 23 -6 5 -9 6 -18 3 -21z m-4882 -3 c-6 -6 -10 -3 -10 10 0
13 4 16 10 10 7 -7 7 -13 0 -20z m691 -8 c-3 -3 -11 0 -18 7 -9 10 -8 11 6 5
10 -3 15 -9 12 -12z m4147 -7 c-8 -16 -9 -16 -15 -1 -4 10 -3 15 3 11 6 -3 10
-1 10 6 0 7 3 10 6 6 3 -3 2 -13 -4 -22z m-4097 -40 c22 -19 32 -32 23 -29
-10 3 -18 10 -18 15 0 5 -5 9 -11 9 -6 0 -9 -7 -6 -14 4 -10 1 -13 -9 -9 -17
6 -19 23 -2 23 6 0 1 9 -12 20 -13 11 -19 20 -14 20 5 0 27 -16 49 -35z m4057
-5 c-4 -28 -6 -31 -12 -15 -4 11 -2 28 4 37 14 22 15 20 8 -22z m672 5 c-4 -8
-11 -15 -16 -15 -6 0 -5 6 2 15 7 8 14 15 16 15 2 0 1 -7 -2 -15z m-709 -34
c-4 -12 -12 -18 -21 -14 -8 3 -14 -1 -14 -10 0 -16 -27 -43 -36 -35 -2 3 12
24 32 47 39 43 50 46 39 12z m-3965 -21 c0 -5 -2 -10 -4 -10 -2 0 -12 -3 -22
-7 -16 -6 -17 -5 -4 10 17 19 30 22 30 7z m3874 -45 c-4 -8 -1 -15 7 -15 7 0
10 -2 7 -5 -3 -3 -13 -3 -22 1 -13 5 -14 9 -5 20 15 18 20 18 13 -1z m-4493
-72 c13 -16 12 -17 -3 -4 -10 7 -18 15 -18 17 0 8 8 3 21 -13z m4439 1 c0 -2
-7 -4 -15 -4 -8 0 -15 4 -15 10 0 5 7 7 15 4 8 -4 15 -8 15 -10z m-100 -65 c0
-5 -4 -7 -10 -4 -14 9 -12 -8 3 -25 10 -12 9 -12 -6 -1 -14 11 -23 11 -42 3
-35 -16 -31 -8 8 17 36 23 47 26 47 10z m-100 -63 c0 -3 -4 -8 -10 -11 -5 -3
-10 -1 -10 4 0 6 5 11 10 11 6 0 10 -2 10 -4z m-4085 -26 c3 -5 1 -10 -4 -10
-6 0 -11 5 -11 10 0 6 2 10 4 10 3 0 8 -4 11 -10z m104 -84 c-3 -3 -11 5 -18
17 -13 21 -12 21 5 5 10 -10 16 -20 13 -22z m3801 4 c-13 -9 -13 -11 -1 -19
10 -7 7 -9 -12 -8 -15 1 -27 4 -27 6 0 7 35 30 45 31 6 0 3 -5 -5 -10z m-145
-80 c-3 -5 -12 -10 -18 -10 -7 0 -6 4 3 10 19 12 23 12 15 0z m65 -5 c-7 -9
-15 -13 -18 -10 -3 3 -11 0 -19 -6 -7 -6 -13 -7 -13 -2 0 15 23 33 43 33 16 0
17 -2 7 -15z m-2555 -65 c3 -5 2 -10 -4 -10 -5 0 -13 5 -16 10 -3 6 -2 10 4
10 5 0 13 -4 16 -10z m49 -19 c19 -7 19 -8 -2 -13 -12 -4 -20 -2 -17 2 3 5 -1
11 -7 13 -7 3 -8 5 -3 6 6 0 19 -4 29 -8z m2231 -11 c3 -6 -1 -7 -9 -4 -18 7
-21 14 -7 14 6 0 13 -4 16 -10z m-173 -67 c-6 -2 -9 -10 -5 -16 4 -7 0 -8 -11
-4 -10 4 -21 7 -24 8 -10 1 31 18 43 18 6 -1 4 -3 -3 -6z m-829 -150 c-7 -2
-21 -2 -30 0 -10 3 -4 5 12 5 17 0 24 -2 18 -5z m67 -27 c0 -2 -9 -6 -20 -9
-11 -3 -18 -1 -14 4 5 9 34 13 34 5z m407 -452 c-3 -3 -12 -4 -19 -1 -8 3 -5
6 6 6 11 1 17 -2 13 -5z"/>
<path d="M5996 7885 c5 -11 44 -28 50 -22 2 1 -10 10 -26 19 -21 12 -27 13
-24 3z"/>
<path d="M6670 7556 c4 -4 16 -4 26 2 16 9 14 10 -8 9 -15 -1 -23 -6 -18 -11z"/>
<path d="M4207 7499 c-302 -39 -552 -263 -635 -569 -11 -42 -16 -137 -19 -402
l-5 -348 -49 0 c-65 0 -107 -22 -126 -67 -19 -47 -10 -92 26 -127 25 -24 37
-28 90 -28 l61 0 0 -134 0 -134 -280 0 c-222 0 -280 3 -280 13 0 29 33 136 75
244 79 202 186 391 321 569 68 89 72 128 20 180 -47 47 -92 47 -145 -1 -55
-50 -226 -308 -298 -450 -238 -470 -320 -1029 -224 -1520 67 -344 188 -641
374 -918 123 -184 171 -237 216 -237 46 0 87 27 106 70 15 33 15 41 2 72 -8
19 -28 50 -44 69 -102 119 -271 412 -308 537 l-6 22 234 0 235 0 4 -377 4
-378 27 -81 c55 -166 178 -308 331 -383 110 -54 156 -61 381 -61 l195 0 -20
-32 c-20 -33 -26 -81 -14 -113 9 -24 52 -42 162 -70 343 -87 728 -80 1066 20
101 30 128 78 87 158 l-19 37 197 0 c223 0 272 8 391 67 135 68 260 217 312
373 21 61 22 87 26 453 l3 387 236 0 235 0 -6 -27 c-21 -89 -210 -413 -311
-533 -50 -60 -59 -86 -46 -132 22 -71 93 -98 156 -59 35 21 157 185 239 322
226 374 351 818 350 1239 -2 480 -144 937 -419 1350 -146 220 -194 257 -275
215 -37 -19 -50 -43 -50 -93 0 -33 11 -55 73 -138 94 -126 187 -281 249 -413
51 -107 128 -326 128 -361 0 -20 -6 -20 -280 -20 l-280 0 0 134 0 133 56 1
c66 0 100 20 121 70 12 29 13 43 3 74 -15 52 -58 78 -127 78 l-53 0 0 184 0
185 -41 48 c-62 72 -541 573 -794 831 l-81 82 -745 -1 c-409 -1 -775 -5 -812
-10z m1438 -554 c0 -304 2 -345 18 -387 25 -63 88 -133 151 -166 l51 -27 293
-3 292 -3 -2 -1392 -3 -1392 -32 -65 c-65 -133 -169 -204 -322 -221 -53 -6
-463 -9 -1042 -7 -886 3 -957 4 -999 21 -116 46 -208 140 -247 250 -17 50 -18
128 -18 1682 0 1568 1 1632 19 1685 65 191 233 331 430 360 28 4 357 7 731 6
l680 -1 0 -340z m265 98 c12 -16 114 -124 227 -240 l205 -213 -220 0 c-192 0
-221 2 -233 17 -17 20 -27 463 -10 463 5 0 19 -12 31 -27z m-2360 -1738 l0
-165 -147 0 c-129 0 -152 -3 -180 -20 -37 -22 -53 -68 -42 -119 16 -73 62 -89
262 -90 l107 -1 0 -175 0 -175 -277 2 -278 3 -18 70 c-54 215 -73 432 -57 654
6 91 14 169 16 173 3 4 142 8 310 8 l304 0 0 -165z m3752 115 c4 -25 10 -115
14 -200 8 -184 -11 -378 -54 -547 l-27 -108 -278 -3 -277 -2 2 177 3 177 49
-3 c27 -1 97 1 155 5 102 6 107 8 138 39 36 36 41 68 22 124 -18 53 -49 61
-219 61 l-150 0 0 165 0 165 308 -2 307 -3 7 -45z m-1788 -2369 c-28 -26 -316
-55 -469 -48 -128 7 -304 33 -319 48 -6 5 153 9 394 9 228 0 400 -4 394 -9z"/>
<path d="M4230 6892 c0 -5 -14 -9 -30 -9 -39 0 -83 -41 -98 -91 -13 -42 -5
-115 11 -105 5 3 7 1 4 -5 -9 -13 2 -44 13 -37 4 3 10 -2 13 -10 14 -34 206
-61 236 -32 11 10 14 9 18 -1 6 -16 903 -17 903 0 0 6 7 8 15 4 9 -3 20 2 27
13 6 11 17 17 24 14 13 -5 48 48 57 87 8 32 -5 83 -21 86 -7 1 -8 0 -2 -3 5
-2 10 -9 10 -15 0 -6 -6 -5 -15 2 -11 9 -12 16 -5 25 7 8 4 18 -12 31 -12 10
-18 14 -15 7 15 -25 -12 -21 -47 6 l-35 28 -508 -1 c-279 -1 -516 2 -525 6
-10 5 -18 5 -18 0z m1057 -44 c-3 -8 -6 -5 -6 6 -1 11 2 17 5 13 3 -3 4 -12 1
-19z m97 -17 c3 -5 -1 -11 -9 -14 -9 -4 -12 -1 -8 9 6 16 10 17 17 5z m-1224
-16 c0 -2 -6 -5 -13 -8 -8 -3 -14 1 -14 8 0 7 6 11 14 8 7 -3 13 -6 13 -8z
m-27 -42 c2 -5 -2 -19 -9 -33 l-14 -25 0 33 c0 29 13 43 23 25z m20 -70 c-3
-7 -6 -13 -8 -13 -2 0 -5 6 -8 13 -3 8 1 14 8 14 7 0 11 -6 8 -14z m97 -93
c18 -12 2 -12 -25 0 -13 6 -15 9 -5 9 8 0 22 -4 30 -9z"/>
<path d="M4658 6192 c-15 -2 -26 -9 -24 -15 1 -7 1 -9 -1 -4 -3 4 -16 7 -29 7
-14 0 -23 -4 -20 -9 4 -5 -3 -7 -14 -4 -37 10 -260 -118 -260 -149 0 -5 4 -6
10 -3 6 3 7 -1 3 -10 -4 -13 -8 -14 -14 -4 -11 18 -80 -60 -73 -81 3 -8 2 -11
-2 -7 -4 4 -17 -8 -29 -25 -17 -24 -20 -37 -12 -49 7 -11 6 -22 -2 -35 -10
-17 -10 -16 -5 9 3 15 2 27 -4 27 -5 0 -22 -37 -38 -82 l-29 -83 -3 -948 c-2
-670 0 -959 8 -988 13 -46 54 -94 72 -83 6 4 8 3 5 -3 -10 -16 18 -24 32 -10
9 9 11 8 6 -3 -4 -12 1 -15 22 -14 56 2 64 4 58 14 -3 6 1 7 10 4 19 -8 88 64
81 83 -3 7 -2 13 2 13 4 0 9 21 11 48 6 96 4 1159 -4 1220 -4 34 -3 68 2 75 5
7 9 136 8 289 0 165 4 274 9 270 5 -3 6 3 3 13 -4 9 -2 24 4 31 6 8 8 14 5 14
-4 0 0 7 9 16 9 9 13 24 10 32 -3 9 -3 13 1 9 4 -4 18 3 31 15 24 23 31 44 11
32 -8 -4 -9 -3 -5 2 5 5 14 9 20 9 14 0 129 57 137 67 9 11 652 2 690 -11 19
-6 43 -8 52 -5 12 3 18 0 18 -10 0 -14 17 -20 57 -19 6 0 9 -5 6 -13 -2 -7 8
-19 24 -27 15 -9 41 -29 57 -46 16 -17 34 -28 39 -24 6 3 7 1 3 -6 -5 -7 3
-22 19 -37 14 -13 22 -24 18 -24 -4 0 -3 -4 2 -8 9 -6 26 -39 46 -87 46 -115
35 -337 -22 -433 -10 -19 -16 -38 -13 -44 4 -6 2 -8 -3 -5 -6 4 -13 0 -17 -8
-3 -8 3 -19 12 -24 9 -6 12 -11 7 -11 -6 0 -15 4 -21 10 -7 7 -23 -5 -47 -35
-21 -25 -34 -45 -29 -45 4 0 13 5 20 12 9 9 12 9 12 0 0 -12 -1 -13 -35 -17
-11 -1 -37 -14 -58 -28 -46 -31 -138 -67 -172 -67 -14 0 -25 -3 -25 -7 0 -5
-116 -7 -257 -5 -292 3 -322 -2 -370 -65 -22 -29 -24 -36 -12 -44 12 -7 7 -13
-12 -11 -15 2 -6 -68 14 -103 39 -69 58 -73 323 -77 100 -2 180 -6 177 -11 -7
-11 59 -77 70 -70 6 3 7 1 3 -6 -4 -6 -12 -8 -18 -5 -5 4 -2 -5 7 -20 19 -29
31 -33 38 -13 4 9 6 9 6 0 1 -6 -3 -15 -9 -18 -5 -3 7 -30 27 -60 20 -30 41
-51 46 -48 5 3 4 10 -2 16 -6 6 -11 15 -11 21 0 5 6 1 14 -9 9 -13 11 -25 5
-36 -6 -12 -4 -21 6 -29 8 -7 15 -18 15 -24 1 -6 11 -24 24 -40 22 -26 24 -27
34 -10 9 16 10 15 9 -8 -1 -14 -6 -24 -11 -21 -5 3 -1 -8 10 -26 10 -17 22
-31 26 -31 4 0 8 -7 8 -15 0 -8 5 -15 10 -15 6 0 10 -5 10 -11 0 -18 46 -79
54 -71 4 4 6 2 5 -3 -5 -16 34 -75 44 -68 6 3 7 1 3 -6 -6 -9 22 -61 44 -81 3
-3 15 -23 27 -45 13 -22 28 -39 34 -37 6 1 8 -2 5 -7 -3 -5 3 -20 14 -34 11
-14 20 -29 20 -33 0 -17 83 -115 109 -129 41 -21 124 -22 155 -2 37 25 76 81
83 119 3 25 -1 48 -17 79 -37 72 -72 119 -83 112 -6 -3 -7 -1 -3 5 9 15 -23
64 -37 55 -5 -3 -7 -1 -3 5 8 13 -143 254 -155 247 -5 -4 -6 0 -4 8 3 7 -3 22
-15 32 -11 10 -20 24 -20 32 0 8 -4 12 -9 9 -5 -3 -8 2 -7 12 0 9 -4 16 -11
15 -7 -2 -10 3 -7 11 3 7 -2 19 -11 26 -8 7 -15 16 -15 19 0 16 -112 176 -121
173 -6 -1 -8 2 -4 8 8 12 -13 52 -24 46 -7 -5 -8 14 -2 47 0 4 8 7 17 7 8 0
13 4 10 9 -3 4 2 8 12 8 35 0 43 3 36 15 -5 7 -3 8 5 4 29 -18 263 177 246
205 -5 7 -4 10 2 6 15 -10 42 36 39 65 -2 15 2 25 10 25 9 0 10 -5 3 -19 -5
-10 -7 -18 -5 -18 12 0 56 101 50 112 -4 6 -3 8 3 5 13 -8 25 35 17 60 -5 14
-4 15 4 4 8 -11 13 -4 23 30 7 24 13 61 13 81 1 21 4 38 9 38 4 0 7 57 7 128
0 98 -5 145 -21 202 -23 84 -101 249 -130 276 -26 24 -24 7 4 -30 23 -30 56
-86 44 -76 -6 5 -68 95 -82 119 -5 10 -4 12 3 7 31 -19 5 20 -53 81 -54 56
-67 65 -76 53 -9 -13 -10 -12 -5 2 7 22 -70 81 -95 73 -10 -3 -20 -1 -24 4 -4
7 1 8 11 4 12 -4 15 -3 10 5 -4 7 -16 12 -27 12 -10 0 -19 4 -19 9 0 15 -32
23 -44 11 -8 -8 -5 -9 9 -5 16 5 17 5 5 -3 -16 -12 -33 -6 -25 8 11 18 -41 35
-113 39 -14 1 -21 5 -16 12 4 7 -1 7 -16 -1 -12 -6 -24 -9 -28 -6 -3 3 1 6 9
7 8 0 6 4 -6 9 -19 8 -628 10 -687 2z m832 -52 c0 -5 -4 -10 -10 -10 -5 0 -10
5 -10 10 0 6 5 10 10 10 6 0 10 -4 10 -10z m-1005 -20 c-3 -5 2 -10 11 -10 10
0 15 -3 11 -6 -10 -10 -39 5 -32 16 3 5 8 10 11 10 3 0 2 -4 -1 -10z m995 -10
c0 -5 -5 -10 -11 -10 -5 0 -7 5 -4 10 3 6 8 10 11 10 2 0 4 -4 4 -10z m-930
-10 c8 -5 11 -10 5 -10 -5 0 -17 5 -25 10 -8 5 -10 10 -5 10 6 0 17 -5 25 -10z
m-33 -16 c-3 -3 -12 -4 -19 -1 -8 3 -5 6 6 6 11 1 17 -2 13 -5z m-117 -7 c0
-2 -15 -16 -32 -33 -27 -24 -29 -25 -13 -4 24 30 45 47 45 37z m1265 -27 c3
-5 1 -10 -4 -10 -6 0 -11 5 -11 10 0 6 2 10 4 10 3 0 8 -4 11 -10z m-24 -17
c13 -15 12 -15 -8 -4 -24 12 -29 21 -14 21 5 0 15 -7 22 -17z m-274 -149 c-3
-3 -12 -4 -19 -1 -8 3 -5 6 6 6 11 1 17 -2 13 -5z m-1139 -59 c-3 -3 -9 2 -12
12 -6 14 -5 15 5 6 7 -7 10 -15 7 -18z m1443 -122 c-8 -15 -10 -15 -11 -2 0
17 10 32 18 25 2 -3 -1 -13 -7 -23z m-31 -3 c0 -11 -2 -20 -4 -20 -2 0 -6 9
-9 20 -3 11 -1 20 4 20 5 0 9 -9 9 -20z m350 -85 c0 -5 -5 -3 -10 5 -5 8 -10
20 -10 25 0 6 5 3 10 -5 5 -8 10 -19 10 -25z m-27 2 c3 -8 -1 -14 -8 -14 -7 0
-11 6 -8 14 3 7 6 13 8 13 2 0 5 -6 8 -13z m-241 -43 c-3 -18 -7 -22 -13 -13
-4 7 -3 19 3 26 15 18 16 17 10 -13z m35 -126 c-3 -8 -6 -5 -6 6 -1 11 2 17 5
13 3 -3 4 -12 1 -19z m-1620 -70 c-2 -13 -4 -5 -4 17 -1 22 1 32 4 23 2 -10 2
-28 0 -40z m1620 -50 c-3 -8 -6 -5 -6 6 -1 11 2 17 5 13 3 -3 4 -12 1 -19z
m-260 -423 c0 -8 -4 -12 -9 -9 -5 3 -21 -2 -36 -11 -25 -15 -25 -14 3 9 35 30
42 32 42 11z m-724 -72 c-7 -2 -19 -2 -25 0 -7 3 -2 5 12 5 14 0 19 -2 13 -5z
m1047 -3 c0 -5 -4 -10 -10 -10 -5 0 -10 5 -10 10 0 6 5 10 10 10 6 0 10 -4 10
-10z m-467 -17 c-7 -2 -19 -2 -25 0 -7 3 -2 5 12 5 14 0 19 -2 13 -5z m-650
-48 c-3 -9 -8 -14 -10 -11 -3 3 -2 9 2 15 9 16 15 13 8 -4z m-23 -96 c0 -6 -4
-7 -10 -4 -5 3 -10 11 -10 16 0 6 5 7 10 4 6 -3 10 -11 10 -16z m1209 -689 c0
-10 -3 -8 -9 5 -12 27 -12 43 0 25 5 -8 9 -22 9 -30z"/>
<path d="M4840 5523 c-14 -3 -34 -12 -44 -21 -15 -13 -18 -14 -11 -2 4 8 -4 4
-19 -10 -14 -13 -24 -30 -22 -37 3 -7 -1 -10 -8 -7 -9 3 -16 -6 -20 -27 -12
-61 -6 -95 23 -136 43 -59 73 -65 334 -62 206 2 224 3 254 23 31 20 58 67 54
94 -1 6 3 12 9 12 5 0 10 10 9 23 0 21 -1 21 -9 2 -7 -17 -9 -15 -9 12 -1 22
-8 36 -21 43 -11 6 -19 14 -19 18 3 20 -2 32 -12 26 -8 -5 -8 -9 1 -14 8 -5 7
-9 -5 -13 -11 -5 -14 -3 -9 5 5 8 2 9 -11 4 -16 -6 -16 -4 -4 11 12 15 12 16
-3 10 -10 -3 -18 -4 -18 0 0 3 8 12 18 20 9 8 11 12 5 8 -7 -3 -13 -3 -13 2 0
4 -96 8 -212 7 l-213 0 185 6 185 6 -185 0 c-102 1 -196 -1 -210 -3z m-87
-143 c-3 -11 -9 -20 -13 -20 -5 0 -6 9 -3 20 3 11 9 20 13 20 5 0 6 -9 3 -20z
m-3 -60 c0 -5 -2 -10 -4 -10 -3 0 -8 5 -11 10 -3 6 -1 10 4 10 6 0 11 -4 11
-10z m579 -63 c-2 -1 -11 -8 -21 -15 -12 -10 -18 -10 -24 -1 -4 7 -3 9 4 5 6
-3 13 -2 17 4 3 5 11 10 17 10 6 0 9 -1 7 -3z"/>
<path d="M5040 3989 c0 -5 -4 -8 -8 -5 -10 6 -52 -30 -52 -44 0 -6 5 -10 11
-10 5 0 7 5 3 12 -4 7 -3 8 5 4 17 -11 2 -28 -18 -21 -26 8 -36 -67 -14 -113
25 -53 57 -72 115 -68 52 4 103 38 94 63 -7 16 11 27 18 11 3 -7 3 0 -1 16 -4
18 -1 31 8 36 16 11 4 41 -36 88 -21 25 -30 30 -41 21 -7 -6 -21 -9 -31 -6
-15 3 -14 6 7 15 23 10 22 11 -17 11 -24 1 -43 -4 -43 -10z m125 -49 c-3 -5 0
-11 5 -13 6 -3 5 -4 -2 -2 -7 1 -12 7 -11 13 3 15 -25 23 -33 10 -4 -6 -3 -8
3 -5 5 3 10 0 10 -7 0 -10 -7 -10 -33 -1 -45 15 -53 25 -16 19 21 -4 31 0 36
12 6 16 8 15 26 -1 11 -10 17 -21 15 -25z m-120 20 c3 -6 -1 -7 -9 -4 -18 7
-21 14 -7 14 6 0 13 -4 16 -10z m20 -33 c12 -3 8 -5 -11 -4 -18 1 -31 6 -31
14 0 8 4 9 11 4 6 -5 20 -11 31 -14z m105 -27 c0 -5 -4 -10 -10 -10 -5 0 -10
5 -10 10 0 6 5 10 10 10 6 0 10 -4 10 -10z m-162 -115 c-3 -3 -9 2 -12 12 -6
14 -5 15 5 6 7 -7 10 -15 7 -18z m72 15 c0 -5 -2 -10 -4 -10 -3 0 -8 5 -11 10
-3 6 -1 10 4 10 6 0 11 -4 11 -10z m80 -15 c-7 -9 -23 -21 -34 -27 -14 -8 -11
-1 9 19 30 31 49 37 25 8z"/>
<path d="M7011 7316 c-8 -10 -9 -16 -1 -21 5 -3 13 1 16 10 9 22 -1 29 -15 11z"/>
<path d="M7037 7275 c3 -8 9 -12 14 -9 12 7 11 11 -5 17 -10 4 -13 1 -9 -8z"/>
<path d="M2820 6908 c0 -4 4 -8 9 -8 6 0 12 4 15 8 3 5 -1 9 -9 9 -8 0 -15 -4
-15 -9z"/>
<path d="M2666 6701 c-4 -5 -2 -12 3 -15 5 -4 12 -2 15 3 4 5 2 12 -3 15 -5 4
-12 2 -15 -3z"/>
<path d="M3325 2900 c-3 -5 -1 -10 4 -10 6 0 11 5 11 10 0 6 -2 10 -4 10 -3 0
-8 -4 -11 -10z"/>
<path d="M7770 7260 c0 -5 5 -10 10 -10 6 0 10 5 10 10 0 6 -4 10 -10 10 -5 0
-10 -4 -10 -10z"/>
<path d="M2371 7161 c-8 -5 -10 -14 -6 -21 6 -9 10 -8 17 4 12 21 7 28 -11 17z"/>
<path d="M4377 8500 c-71 -12 -68 -19 8 -17 37 0 59 4 48 8 -16 6 -15 7 7 11
43 9 -11 6 -63 -2z"/>
<path d="M4480 8500 c-11 -9 -7 -10 19 -5 18 4 31 3 28 -1 -3 -5 22 -10 54
-11 32 -1 59 3 59 8 0 5 -17 9 -37 9 -21 0 -54 3 -73 5 -19 3 -42 1 -50 -5z"/>
<path d="M5868 8493 c7 -3 16 -2 19 1 4 3 -2 6 -13 5 -11 0 -14 -3 -6 -6z"/>
<path d="M4265 8470 c-4 -6 -12 -10 -18 -8 -28 5 -267 -69 -267 -82 0 -10 31
-18 48 -13 6 3 12 12 12 20 0 12 7 14 31 9 17 -3 44 0 62 7 33 14 104 12 122
-3 16 -12 65 -9 65 5 0 8 -9 10 -26 7 -19 -3 -25 -1 -20 7 4 6 14 11 22 11 8
0 12 5 9 10 -3 6 -25 8 -48 5 -42 -5 -42 -5 -7 5 19 5 43 7 53 4 21 -7 23 12
1 20 -22 9 -32 8 -39 -4z m-115 -45 c-7 -8 -22 -15 -34 -15 -17 1 -16 3 9 15
39 18 40 18 25 0z"/>
<path d="M6245 8380 c-3 -6 1 -7 9 -4 18 7 21 14 7 14 -6 0 -13 -4 -16 -10z"/>
<path d="M6643 8202 c1 -12 6 -18 15 -15 7 3 10 9 5 12 -4 3 -11 10 -15 15 -4
4 -6 -1 -5 -12z"/>
<path d="M6758 8143 c7 -3 16 -2 19 1 4 3 -2 6 -13 5 -11 0 -14 -3 -6 -6z"/>
<path d="M3034 7823 c-1 -13 -1 -23 0 -21 1 2 7 10 14 19 10 13 10 18 0 22 -8
3 -14 -5 -14 -20z"/>
<path d="M7890 3165 c-7 -9 -11 -18 -8 -20 3 -3 11 1 18 10 7 9 11 18 8 20 -3
3 -11 -1 -18 -10z"/>
</g>
</svg>
