<?xml version="1.0" standalone="no"?>
<!DOCTYPE svg PUBLIC "-//W3C//DTD SVG 20010904//EN"
 "http://www.w3.org/TR/2001/REC-SVG-20010904/DTD/svg10.dtd">
<svg version="1.0" xmlns="http://www.w3.org/2000/svg"
 width="250.000000pt" height="250.000000pt" viewBox="0 0 250.000000 250.000000"
 preserveAspectRatio="xMidYMid meet">

<g transform="translate(0.000000,250.000000) scale(0.100000,-0.100000)"
fill="#000000" stroke="none">
<path d="M622 1803 c2 -97 6 -118 18 -118 12 0 16 18 18 93 l3 92 82 0 c83 0
110 10 100 36 -4 11 -31 14 -114 14 l-110 0 3 -117z"/>
<path d="M1644 1899 c-12 -21 12 -28 101 -31 l90 -3 3 -88 c2 -77 5 -88 20
-85 15 3 17 19 20 111 l3 107 -115 0 c-72 0 -117 -4 -122 -11z"/>
<path d="M817 1742 c-15 -16 -17 -46 -17 -205 l0 -187 -46 0 c-31 0 -54 7 -71
20 -14 11 -34 20 -44 20 -26 0 -59 -35 -59 -63 0 -50 70 -78 109 -43 11 10 35
16 64 16 l47 0 0 -233 c0 -194 3 -236 16 -255 l15 -22 419 0 419 0 15 22 c13
19 16 61 16 255 l0 233 47 0 c29 0 53 -6 64 -16 39 -35 109 -7 109 43 0 28
-33 63 -59 63 -10 0 -30 -9 -44 -20 -17 -13 -40 -20 -71 -20 l-46 0 0 184 c0
160 -2 187 -17 205 -18 21 -23 21 -258 19 -205 -3 -240 -5 -240 -18 0 -13 34
-15 233 -18 l232 -2 0 -185 0 -185 -400 0 -400 0 0 185 0 184 67 3 c55 2 68 6
71 21 3 15 -6 17 -76 17 -64 0 -82 -4 -95 -18z m833 -672 l0 -230 -400 0 -400
0 0 230 0 230 400 0 400 0 0 -230z"/>
<path d="M1032 1743 c2 -14 15 -19 56 -21 47 -3 52 -1 52 17 0 19 -6 21 -56
21 -47 0 -55 -3 -52 -17z"/>
<path d="M1844 865 c-3 -7 -6 -51 -7 -96 l-2 -83 -80 -3 c-95 -4 -107 -7 -99
-28 5 -12 26 -15 115 -15 l109 0 0 114 c0 93 -3 115 -15 120 -9 3 -18 -1 -21
-9z"/>
<path d="M627 863 c-4 -3 -7 -55 -7 -115 l0 -109 110 2 c70 1 113 5 119 13 21
25 -5 35 -94 38 l-90 3 -3 88 c-2 63 -6 87 -16 87 -7 0 -16 -3 -19 -7z"/>
</g>
</svg>
