<?xml version="1.0" standalone="no"?>
<!DOCTYPE svg PUBLIC "-//W3C//DTD SVG 20010904//EN"
 "http://www.w3.org/TR/2001/REC-SVG-20010904/DTD/svg10.dtd">
<svg version="1.0" xmlns="http://www.w3.org/2000/svg"
 width="320.000000pt" height="320.000000pt" viewBox="0 0 320.000000 320.000000"
 preserveAspectRatio="xMidYMid meet">

<g transform="translate(0.000000,320.000000) scale(0.100000,-0.100000)"
fill="#000000" stroke="none">
<path d="M864 3169 c-16 -18 -20 -42 -24 -148 l-5 -126 -126 -3 c-166 -3 -162
0 -169 -171 l-5 -126 -127 -3 c-123 -3 -128 -3 -148 -29 -20 -26 -20 -31 -20
-1263 0 -1204 1 -1238 19 -1261 l19 -24 1010 -3 1011 -2 28 24 c28 24 28 26
31 150 l4 126 118 0 c111 0 121 2 147 24 28 24 28 26 31 150 l4 126 118 0
c111 0 121 2 147 24 l28 24 3 1214 c1 667 0 1228 -3 1246 -3 18 -15 42 -26 53
-19 19 -42 19 -1032 19 l-1014 0 -19 -21z m1924 -1266 l2 -1123 -65 0 -65 0 0
1014 c0 714 -3 1022 -11 1045 -6 17 -19 36 -29 41 -12 6 -314 10 -814 10
l-796 0 0 70 0 70 888 -2 887 -3 3 -1122z m-300 -300 l2 -1123 -65 0 -65 0 -2
1029 -3 1029 -24 26 -24 26 -799 0 -798 0 0 70 0 70 888 -2 887 -3 3 -1122z
m-300 -300 l2 -1123 -890 0 -890 0 0 1119 c0 862 3 1120 12 1123 7 3 406 4
888 4 l875 -1 3 -1122z"/>
<path d="M616 2104 c-20 -19 -20 -38 -2 -53 9 -8 199 -10 692 -9 l679 3 3 23
c8 54 33 52 -689 52 -594 0 -669 -2 -683 -16z"/>
<path d="M617 1882 c-22 -24 -21 -35 1 -55 17 -15 78 -17 676 -17 434 0 664 4
677 10 11 6 19 21 19 35 0 14 -8 29 -19 35 -13 6 -244 10 -679 10 -626 0 -660
-1 -675 -18z"/>
<path d="M622 1664 c-26 -18 -28 -37 -6 -58 14 -14 89 -16 675 -16 436 0 667
4 680 10 11 6 19 21 19 35 0 14 -8 29 -19 35 -13 6 -242 10 -673 10 -575 0
-656 -2 -676 -16z"/>
<path d="M612 1438 c-16 -16 -15 -33 4 -52 14 -14 89 -16 683 -16 728 0 701
-2 687 55 l-6 25 -678 0 c-514 0 -681 -3 -690 -12z"/>
<path d="M610 1210 c-8 -14 -8 -26 0 -40 11 -20 19 -20 687 -18 631 3 677 4
687 21 8 12 8 22 0 35 -10 16 -56 17 -687 20 -668 2 -676 2 -687 -18z"/>
<path d="M610 990 c-8 -14 -8 -26 0 -40 11 -20 19 -20 687 -18 631 3 677 4
687 21 8 12 8 22 0 35 -10 16 -56 17 -687 20 -668 2 -676 2 -687 -18z"/>
<path d="M610 770 c-8 -14 -8 -26 0 -40 11 -20 19 -20 687 -18 631 3 677 4
687 21 8 12 8 22 0 35 -10 16 -56 17 -687 20 -668 2 -676 2 -687 -18z"/>
<path d="M616 554 c-19 -18 -19 -20 -6 -45 10 -18 26 -19 468 -19 465 0 482 1
482 36 0 7 -7 20 -16 28 -14 14 -70 16 -464 16 -394 0 -450 -2 -464 -16z"/>
</g>
</svg>
